# xmcd
#
# Track frame offsets: 
#        150
#        16727
#        26827
#        54673
#        72824
#        85268
#        106388
#        116139
#        147201
#        151830
#        163477
#        189254
#        204144
#        214337
#
# Disc length: 3148 seconds
#
# Revision: 0
# Processed by: cddbd v1.5.1PL0 Copyright (c) Steve Scherf et al.
# Submitted via: ExactAudioCopy v0.90b4
#
DISCID=bf0c4a0e
DTITLE=Franz Josef Degenhardt - Krieg gegen den Krieg
DYEAR=2003
DGENRE=Liedermacher
TTITLE0=Diesmal werd ich nicht mit ihnen ziehn
TTITLE1=Eigentlich unglaublich
TTITLE2=In den guten alten Zeiten
TTITLE3=Befragung eines Kriegsdienstverweigerers
TTITLE4=Spaziergang
TTITLE5=Reiter wieder an der schwarzen Mauer
TTITLE6=Denkbar ist es aber immer noch
TTITLE7=Diesmal Grenada
TTITLE8=Ja, das ist die Sprache der Mörder
TTITLE9=Weltkrieg Nr. 1
TTITLE10=Quantensprung
TTITLE11=Im Krieg
TTITLE12=Am Fluß
TTITLE13=Frühlingslied
EXTD=
EXTT0=
EXTT1=
EXTT2=
EXTT3=
EXTT4=
EXTT5=
EXTT6=
EXTT7=
EXTT8=
EXTT9=
EXTT10=
EXTT11=
EXTT12=
EXTT13=
PLAYORDER=
